<svg xmlns="http://www.w3.org/2000/svg" id="Layer_1" viewBox="0 0 595.3 582.4">
  <style>
    .st1{fill:#b2dff8}.st2{fill:#cce9fb}.st3{fill:#f1f1f1}.st5{fill:#01384f}.st7{fill:#2a94f4}.st8{fill:#facbb6}.st9{fill:#fabb58}
  </style>
  <path d="M180.8 70.8c-16.1 7-32.1 15.6-43.4 29.2s-16.9 32.9-10.2 49.2c9 21.7 37.7 34.3 37.8 57.8.1 16.8-15.4 29.7-31.1 35.8-15.7 6.1-33 8.3-47.3 17.3-21.5 13.5-31.6 39.6-35.7 64.7-4.3 26-2.6 55.7 15.9 74.5 22.9 23.5 60.7 20.8 93.1 15.8 43.2-6.7 86.3-14.5 129.3-22.4l283-51.6c10.1-1.8 20.6-3.9 28.9-10 16.3-12.3 17.7-37.6 8.2-55.7s-27-30.4-44.5-41-35.8-20.7-48.9-36.4c-13.1-15.7-19.6-38.9-9.7-56.8 8.4-15.1 26.4-23.2 34.2-38.7 10.3-20.3-1.6-46.3-20.3-59.2-18.7-13-254.1-9.7-339.3 27.5z" fill="#eff8fd"/>
  <circle class="st1" cx="70.4" cy="373.2" r="76"/>
  <path class="st2" d="M70.4 523.4c-1 0-1.7-.8-1.7-1.7V373.2c0-1 .8-1.7 1.7-1.7s1.7.8 1.7 1.7v148.5c0 .9-.8 1.7-1.7 1.7z"/>
  <path class="st2" d="M70.4 414.3c-.4 0-.9-.2-1.2-.5l-21.3-21.3c-.7-.7-.7-1.8 0-2.5s1.8-.7 2.5 0l21.3 21.3c.7.7.7 1.8 0 2.5-.4.3-.9.5-1.3.5zM70.4 434.1c-.4 0-.9-.2-1.2-.5l-21.3-21.3c-.7-.7-.7-1.8 0-2.5s1.8-.7 2.5 0l21.3 21.3c.7.7.7 1.8 0 2.5-.4.3-.9.5-1.3.5zM604.2 320.9a69.54 69.54 0 0 1 36.5 61.3 69.7 69.7 0 0 1-69.7 69.7c-29.7 0-55.1-18.6-65.1-44.7l98.3-86.3z"/>
  <circle class="st1" cx="496.4" cy="297.3" r="110.4"/>
  <path class="st2" d="M496.4 515.4c-1.4 0-2.5-1.1-2.5-2.5V297.3c0-1.4 1.1-2.5 2.5-2.5s2.5 1.1 2.5 2.5v215.6c.1 1.3-1.1 2.5-2.5 2.5z"/>
  <path class="st2" d="M496.4 356.9c-.6 0-1.3-.2-1.8-.7l-30.9-30.9c-1-1-1-2.6 0-3.6s2.6-1 3.6 0l30.9 30.9c1 1 1 2.6 0 3.6-.5.5-1.1.7-1.8.7zM496.4 385.6c-.6 0-1.3-.2-1.8-.7L463.8 354c-1-1-1-2.6 0-3.6s2.6-1 3.6 0l30.9 30.9c1 1 1 2.6 0 3.6-.6.5-1.2.7-1.9.7zM570.6 515.3c-1.2-.2-2.1-1.4-2.1-2.6v-113c0-1.4 1-2.6 2.4-2.7 1.5-.1 2.7 1.1 2.7 2.5v113.2c0 1.7-1.4 2.9-3 2.6z"/>
  <path class="st2" d="M571.1 416.1c-.6 0-1.3-.2-1.8-.7-1-1-1-2.6 0-3.6l22.3-22.3c1-1 2.6-1 3.6 0s1 2.6 0 3.6l-22.3 22.3c-.6.5-1.2.7-1.8.7zM571.1 436.8c-.6 0-1.3-.2-1.8-.7-1-1-1-2.6 0-3.6l22.3-22.3c1-1 2.6-1 3.6 0s1 2.6 0 3.6l-22.3 22.3c-.6.5-1.2.7-1.8.7z"/>
  <path class="st3" d="M615.2 582.4H16.6c-4.6 0-8.4-3.8-8.4-8.4v-52.2c0-4.6 3.8-8.4 8.4-8.4h598.6c4.6 0 8.4 3.8 8.4 8.4V574c0 4.6-3.8 8.4-8.4 8.4z"/>
  <ellipse class="st3" cx="362.8" cy="541.4" rx="235.6" ry="6.2"/>
  <circle cx="506.2" cy="51.8" r="51.8" fill="#fabb56"/>
  <g>
    <path class="st5" d="M246.7 157.5s-4.1 2.8-2 7.5c2 4.7 11 18.7 23.1 18.2.5 0-15.2-25.7-15.2-25.7h-5.9zM228.2 415.1s-15.1-13.5-20-11.1c-5.9 3-39.8 36.1-38.4 51.7.5 6.4 8 .9 21.3-12.8 13.3-13.8 30-7.9 30-7.9l7.1-19.9zM264.9 437.9L246.7 427s-47.3 44.3-39.9 50.3c5.6 4.5 8.9.5 22.2-13.3 13.3-13.8 30.1-5.8 30.1-5.8l5.8-20.3z"/>
    <path fill="#f3a582" d="M376.4 292l3.4 48.6-76-19.8z"/>
    <path class="st7" d="M303.8 322.5s66.4 4.2 75.3 1.2c0 0 13 127.6-10.1 141.3-23.1 13.8-75-6.4-75-6.4l14-27.5 30.2-2V380l-2.2.5-32.2-58z"/>
    <path class="st7" d="M220.6 409.5s-16.7 6.9-11.3 23.6c0 0 57 44.7 84.8 34.4 15.6-5.8 32.3-49.9 43.9-87.6l41.1-56.2s-19.4 1-25.9.9c-12.4 0-49.4-2.2-49.4-2.2s-19.4 101.3-26.3 103.7c-6.8 2.6-56.9-16.6-56.9-16.6z"/>
    <path class="st8" d="M319.3 195.5s39.8-37.4 46.7-47.2c6.9-9.8 21.6-42.8 39.8-56.5L397 73s5.4-2.9 8.8 4.9c0 0 12.8-25.6 15.7-25.1 3 .5-5.9 19.7-5.9 19.7s12.3-17.7 15.7-17.2c3.4.5-8.9 19.9-8.9 19.9s13.8-16 15.7-14c2 2-10.8 14-10.8 14s13.8-7.9 15.2-5.3c1.5 2.6-13.8 9.5-13.8 9.5s-1.5 11.3-10.8 16.2c0 0-18.5 50-35.2 66.2L329 217.6l-9.7-22.1zM271.8 214.8s-37.7 39.5-47.6 46.3c-9.9 6.8-43 21.2-56.9 39.3l-18.6-9s-3 5.4 4.8 8.9c0 0-25.7 12.5-25.2 15.5s19.7-5.7 19.7-5.7-17.8 12.1-17.4 15.6c.5 3.4 20-8.7 20-8.7s-16.1 13.6-14.1 15.6c1.9 2 14.1-10.7 14.1-10.7s-8 13.7-5.4 15.2c2.6 1.5 9.6-13.7 9.6-13.7s11.3-1.4 16.3-10.7c0 0 47.3-18.8 63.7-35.4l58.9-41.7-21.9-20.8z"/>
    <path class="st9" d="M285.9 199.1l-19.1 18.7 4.8 21.1s18.8 45.1 21.6 56.1c4.4 17.1-2.7 43.2-2.7 43.2s31.9-2.6 60.9-3.6 38.5-10.3 38.5-10.3-25.1-83.7-42.5-107.2c-17.4-23.4-23.7-30.7-23.7-30.7l-25.6 5.6-12.2 7.1z"/>
    <path class="st9" d="M341.9 214.3l19.9-12.7s3-13.6-20.9-29.7l-28.1 17.6 29.1 24.8zM270.9 216.3c-10.9 1.5-30.8 29.2-33 29.1 0 0 14 22.9 25.1 23.6 0 0 48.8-58.5 7.9-52.7z"/>
    <path class="st8" d="M309.4 198.3s-15.8-11.8-15.3-16.6c.1-1.2 2.3-3.1 2.9-4.8 3.1-9.2-11.7-33-20.8-38-7.2-3.9-4-4.3-19.1 4.7-15.1 9-6.5 24.4.2 32.4 6.4 7.6 13.6 10.8 20.2 11.4l9.3 20.7 22.6-9.8z"/>
    <path class="st8" d="M280.8 214.7c-3-7.4 2.7-16.6 12.7-20.7 10-4.1 20.5-1.4 23.5 5.9 3 7.3-7.1 18.4-12.7 20.7-5.6 2.4-20.5 1.5-23.5-5.9zM257.3 176.1s-5.1-.3-5.7 3.1c-.6 3.4 9.4 3.4 13.1.9l-7.4-4z"/>
    <path class="st5" d="M259.8 179.2c-1-6.2-7.6-10.8-7.2-16.8 3.2 0 5.2-3.9 3.8-7.2-.6-1.3-1.5-2.4-2.1-3.7-.6-1.3-.8-3 .2-3.7.4-.3 1-.4 1.6-.5 4.7-.5 12.7.9 17-.7 4.1-1.5 8.5-4.5 8.1-9.5-.4-4.4-4.2-7.9-7.8-10.6-2-1.5-7.9-5.6-10-5.2-3.4.6-4.2 5-4.4 8.8a5.82 5.82 0 0 0-7.8-.1c-2 1.8-3 4.7-3.9 7.5-.9 2.8-1.8 5.7-3.8 7.5-1.9 1.7-4.8 3-4.5 6 .5 3.5 5 4.7 7.1 7.7-.5-.7-1 3.9-.7 4.7.9 2.4 3.1 4 4.8 5.8 3.4 3.8 5.1 7.7 9.6 10z"/>
    <path d="M277.5 187.4s7.5 0 11.5-2.5c0 0-3.4 4.2-10.3 5.3l-1.2-2.8z" fill="#f8bba9"/>
  </g>
</svg>
